<svg width="25" height="23" viewBox="0 0 25 23" fill="none" xmlns="http://www.w3.org/2000/svg">
<path d="M17.9251 17.9403H11.3496C12.2837 18.622 12.7299 19.4595 12.551 20.5385C12.4496 21.1493 12.1336 21.6544 11.6358 22.0297C10.5556 22.8462 9.09378 22.6745 8.25705 21.6374C7.35473 20.5195 7.57137 19.159 8.92882 17.9193C8.19345 17.9193 7.54851 17.9263 6.90457 17.9173C5.77469 17.9024 4.93995 17.3853 4.43513 16.3722C3.77131 15.0377 4.30594 13.3907 5.64352 12.7619C6.05989 12.5663 6.12051 12.3646 6.05691 11.9444C5.53023 8.46288 5.02839 4.97735 4.5186 1.49281C4.51463 1.46287 4.48879 1.43692 4.44209 1.35407C3.53281 1.35407 2.59274 1.35407 1.65266 1.35407C1.32175 1.35407 0.989837 1.36006 0.658921 1.34509C0.244532 1.32513 0.00504128 1.0696 7.25866e-05 0.67633C-0.00489611 0.275074 0.245526 0.0265352 0.657928 0.0125611C1.1707 -0.00540553 1.68446 0.0015815 2.19723 0.0015815C3.10849 0.0015815 4.01875 -0.00241109 4.93001 0.00657224C5.53917 0.0125611 5.68227 0.136331 5.78463 0.745202C5.87307 1.26923 5.96946 1.79525 6.00524 2.32427C6.03008 2.6846 6.18013 2.75248 6.50111 2.75048C8.67044 2.7385 10.8398 2.74449 13.0091 2.74449C16.354 2.74449 19.699 2.74349 23.0449 2.74449C23.982 2.74449 24.1807 2.99103 24.0237 3.9273C23.5189 6.9417 23.0161 9.95611 22.5132 12.9705C22.4059 13.6143 22.2091 13.788 21.5543 13.788C16.7187 13.789 11.8832 13.788 7.04767 13.791C6.14138 13.791 5.54315 14.327 5.52129 15.1365C5.50241 15.8103 5.91878 16.3722 6.57564 16.5179C6.81513 16.5708 7.06754 16.5788 7.31498 16.5788C12.5639 16.5808 17.8128 16.5788 23.0628 16.5758C23.1452 16.5758 23.2287 16.5728 23.3112 16.5758C23.8111 16.5908 24.1131 16.8563 24.1012 17.2685C24.0903 17.6628 23.8031 17.9133 23.3231 17.9173C22.398 17.9243 21.4728 17.9193 20.3876 17.9193C21.1598 18.4803 21.6288 19.1081 21.6556 19.9755C21.6825 20.8329 21.3645 21.5316 20.6867 22.0557C19.7218 22.8013 18.3365 22.6865 17.474 21.7971C16.4514 20.7421 16.5816 19.5723 17.9241 17.9403H17.9251ZM7.49088 12.3966H21.2333C21.6954 9.6377 22.1545 6.89978 22.6176 4.1399H6.28249C6.68794 6.90877 7.08841 9.64669 7.49088 12.3966ZM19.223 19.0013C18.6496 18.9993 18.1527 19.4984 18.1477 20.0833C18.1418 20.6642 18.6277 21.1683 19.2081 21.1833C19.7973 21.1983 20.326 20.6682 20.3131 20.0743C20.3002 19.4894 19.8083 19.0043 19.224 19.0023L19.223 19.0013ZM11.2174 20.0893C11.2174 19.4904 10.7563 19.0173 10.1581 19.0023C9.55686 18.9874 9.07191 19.4914 9.08086 20.1203C9.0898 20.7112 9.57177 21.1823 10.167 21.1853C10.7444 21.1883 11.2164 20.6952 11.2164 20.0893H11.2174Z" fill="black"/>
</svg>
