<svg width="12" height="19" viewBox="0 0 12 19" fill="none" xmlns="http://www.w3.org/2000/svg">
<path d="M6.97866 18.8828H3.97384C3.47195 18.8828 3.06365 18.4745 3.06365 17.9726V11.1951H1.31057C0.808646 11.1951 0.400391 10.7866 0.400391 10.2849V7.38067C0.400391 6.87874 0.808646 6.47049 1.31057 6.47049H3.06365V5.01616C3.06365 3.57414 3.51644 2.34732 4.37293 1.46847C5.23331 0.585666 6.43568 0.119141 7.85007 0.119141L10.1417 0.122879C10.6427 0.123722 11.0503 0.532014 11.0503 1.03303V3.72953C11.0503 4.23142 10.6421 4.63971 10.1404 4.63971L8.59746 4.64026C8.1269 4.64026 8.00707 4.73459 7.98145 4.76351C7.93923 4.81152 7.88899 4.94704 7.88899 5.3214V6.47038H10.0244C10.1852 6.47038 10.3409 6.51003 10.4748 6.58472C10.7636 6.74608 10.9431 7.05113 10.9431 7.38081L10.9419 10.285C10.9419 10.7866 10.5336 11.1949 10.0317 11.1949H7.88895V17.9726C7.88899 18.4745 7.48058 18.8828 6.97866 18.8828ZM4.16364 17.7828H6.78882V10.7026C6.78882 10.3675 7.06155 10.0949 7.39651 10.0949H9.84191L9.8429 7.57054H7.39637C7.06141 7.57054 6.78882 7.29799 6.78882 6.96285V5.32143C6.78882 4.8917 6.83251 4.40297 7.15688 4.03561C7.54886 3.59155 8.16656 3.54032 8.59717 3.54032L9.95027 3.53973V1.22257L7.84919 1.21916C5.57615 1.21916 4.16367 2.67418 4.16367 5.01619V6.96281C4.16367 7.29777 3.89109 7.5705 3.55609 7.5705H1.50041V10.0949H3.55609C3.89109 10.0949 4.16367 10.3675 4.16367 10.7026L4.16364 17.7828Z" fill="black"/>
</svg>
