<svg width="26" height="26" viewBox="0 0 26 26" fill="none" xmlns="http://www.w3.org/2000/svg">
<g clip-path="url(#clip0_381_1033)">
<path d="M17.6612 7.91546H23.4988C23.749 7.91546 23.9157 7.74869 23.9157 7.49851V5.83064C23.9157 5.58046 23.749 5.41369 23.4988 5.41369H17.6612C17.411 5.41369 17.2442 5.58046 17.2442 5.83064V7.49851C17.2442 7.74864 17.411 7.91546 17.6612 7.91546ZM18.0782 6.2476H23.0818V7.08155H18.0782V6.2476ZM11.6151 11.6682C12.4491 11.1261 13.4498 10.0003 13.0746 7.91546C12.6159 5.20514 9.86388 4.53801 8.4462 4.57969H1.39938C1.14919 4.57969 0.982422 4.74646 0.982422 4.99664V19.1736C0.982422 19.4238 1.14919 19.5905 1.39938 19.5905H8.98824C10.7395 19.5905 13.5749 18.8817 13.9085 16.0046C14.2004 13.4195 12.6993 12.2102 11.6151 11.6682ZM13.0746 15.8795C12.6993 18.9651 8.86315 18.7566 8.6547 18.7566H1.81638V5.41364H8.4462C8.48788 5.41364 11.782 5.41364 12.2406 8.04055C12.6993 10.6258 10.531 11.2512 10.4477 11.2929C10.2809 11.3346 10.1558 11.5014 10.1558 11.7099C10.1558 11.9183 10.2809 12.0851 10.4894 12.1268C10.6144 12.1269 13.4498 12.794 13.0746 15.8795ZM26.0006 15.004C26.0006 11.3346 23.5822 8.74942 20.163 8.74942C16.8272 8.74942 14.3254 11.6265 14.3254 14.17C14.3254 17.756 16.8272 20.4246 20.163 20.4246C23.9574 20.4246 25.4585 17.339 25.5836 16.7552C25.6253 16.6301 25.5836 16.5051 25.5002 16.4216C25.4168 16.2966 25.2917 16.2549 25.1666 16.2549H22.6648C22.498 16.2549 22.3312 16.38 22.2895 16.5467C22.1227 16.8803 21.7475 17.5058 20.5799 17.5058C19.3707 17.5058 18.6201 16.7552 18.4951 15.4209H25.5836C25.8338 15.4209 26.0006 15.2541 26.0006 15.004ZM18.0365 14.587C17.7863 14.587 17.6195 14.7537 17.6195 15.0039C17.6195 17.047 18.7453 18.3397 20.5383 18.3397C21.9977 18.3397 22.6648 17.5891 22.915 17.0888H24.4995C23.9991 17.9644 22.7066 19.5906 20.163 19.5906C17.2442 19.5906 15.1594 17.2973 15.1594 14.17C15.1594 12.0435 17.3276 9.58332 20.163 9.58332C23.4154 9.58332 24.9999 12.0851 25.125 14.587H18.0365Z" fill="black"/>
<path d="M4.31832 10.8343H8.488C9.6555 10.8343 10.5729 9.91696 10.5729 8.74942C10.5729 7.58192 9.65555 6.66455 8.488 6.66455H4.31832C4.06814 6.66455 3.90137 6.83132 3.90137 7.0815V10.4173C3.90132 10.6675 4.06814 10.8343 4.31832 10.8343ZM4.73527 7.49851H8.488C9.19687 7.49851 9.73891 8.04055 9.73891 8.74942C9.73891 9.45828 9.19687 10.0003 8.488 10.0003H4.73527V7.49851ZM8.07105 12.5022H4.31832C4.06814 12.5022 3.90137 12.669 3.90137 12.9191V17.0888C3.90137 17.339 4.06814 17.5058 4.31832 17.5058H8.07105C9.44705 17.5058 10.5729 16.38 10.5729 15.004C10.5729 13.628 9.44705 12.5022 8.07105 12.5022ZM8.07105 16.6719H4.73527V13.3361H8.07105C8.98837 13.3361 9.73891 14.0866 9.73891 15.004C9.73891 15.9213 8.98837 16.6719 8.07105 16.6719ZM20.3716 10.4173C18.662 10.4173 17.6613 11.7099 17.6613 12.9191V13.3361C17.6613 13.5863 17.8281 13.7531 18.0783 13.7531H22.665C22.9151 13.7531 23.0819 13.5863 23.0819 13.3361V12.9191C23.082 11.7099 22.1229 10.4173 20.3716 10.4173ZM18.4953 12.9191C18.4953 12.1269 19.1624 11.2513 20.3716 11.2513C21.5809 11.2513 22.248 12.1269 22.248 12.9191H18.4953Z" fill="black"/>
</g>
<defs>
<clipPath id="clip0_381_1033">
<rect width="25.0182" height="25.0182" fill="white" transform="translate(0.982422 -0.0078125)"/>
</clipPath>
</defs>
</svg>
