<svg width="19" height="19" viewBox="0 0 19 19" fill="none" xmlns="http://www.w3.org/2000/svg">
<g clip-path="url(#clip0_381_1031)">
<path d="M14.0724 0.119141H4.69079C2.11109 0.119141 0 2.23023 0 4.80994V14.192C0 16.771 2.11109 18.8828 4.69079 18.8828H14.0724C16.6521 18.8828 18.7632 16.771 18.7632 14.192V4.80994C18.7632 2.23023 16.6521 0.119141 14.0724 0.119141ZM17.1995 14.192C17.1995 15.9158 15.7972 17.3191 14.0724 17.3191H4.69079C2.9667 17.3191 1.56367 15.9158 1.56367 14.192V4.80994C1.56367 3.08561 2.9667 1.68282 4.69079 1.68282H14.0724C15.7972 1.68282 17.1995 3.08561 17.1995 4.80994V14.192Z" fill="black"/>
<path d="M14.4637 5.59174C15.1114 5.59174 15.6364 5.0667 15.6364 4.41904C15.6364 3.77137 15.1114 3.24634 14.4637 3.24634C13.8161 3.24634 13.291 3.77137 13.291 4.41904C13.291 5.0667 13.8161 5.59174 14.4637 5.59174Z" fill="black"/>
<path d="M9.38122 4.80981C6.79002 4.80981 4.69043 6.90963 4.69043 9.50061C4.69043 12.0906 6.79002 14.1919 9.38122 14.1919C11.9717 14.1919 14.072 12.0906 14.072 9.50061C14.072 6.90963 11.9717 4.80981 9.38122 4.80981ZM9.38122 12.6282C7.65429 12.6282 6.2541 11.228 6.2541 9.50061C6.2541 7.77322 7.65429 6.37349 9.38122 6.37349C11.1082 6.37349 12.5083 7.77322 12.5083 9.50061C12.5083 11.228 11.1082 12.6282 9.38122 12.6282Z" fill="black"/>
</g>
<defs>
<clipPath id="clip0_381_1031">
<rect width="18.7636" height="18.7636" fill="white" transform="translate(0 0.119141)"/>
</clipPath>
</defs>
</svg>
