<svg width="58" height="59" viewBox="0 0 58 59" fill="none" xmlns="http://www.w3.org/2000/svg">
<circle cx="29" cy="29.0117" r="28.5" stroke="#5F5F5F"/>
<path d="M18.4666 37.9919C18.191 37.1656 16.9481 37.5843 17.2211 38.4066C17.3031 38.7242 17.8438 39.8549 17.8438 41.8723V46.7305C17.8438 47.5987 19.1563 47.5994 19.1563 46.7305V41.8723C19.1563 39.769 18.504 38.1369 18.4666 37.9919ZM25.0626 43.4492H23.7501V42.1367C23.7501 41.2685 22.4376 41.2679 22.4376 42.1367V43.4492H21.1251C20.2562 43.4492 20.2569 44.7617 21.1251 44.7617H22.4376V46.0742C22.4376 46.9424 23.7501 46.9431 23.7501 46.0742V44.7617H25.0626C25.9315 44.7617 25.9308 43.4492 25.0626 43.4492Z" fill="#5F5F5F"/>
<path d="M28.3438 46.0742C28.7062 46.0742 29 45.7804 29 45.418C29 45.0555 28.7062 44.7617 28.3438 44.7617C27.9813 44.7617 27.6875 45.0555 27.6875 45.418C27.6875 45.7804 27.9813 46.0742 28.3438 46.0742Z" fill="#5F5F5F"/>
<path d="M45.3911 46.5881L43.0667 36.1287C42.9511 35.6073 42.71 35.1219 42.3641 34.7148C42.0182 34.3078 41.5782 33.9914 41.0822 33.7932L35.9313 31.7325L35.1576 30.9627C38.5025 30.5007 38.8247 28.5392 38.8378 28.4454C38.857 28.3099 38.8332 28.1717 38.7699 28.0504C38.7066 27.9291 38.6069 27.8306 38.4848 27.7688C37.5785 26.8789 37.5115 22.6107 37.5391 21.3218C37.5759 19.5013 37.6618 15.2377 35.1477 12.6731C33.8221 11.3225 31.9748 10.6367 29.6562 10.6367C27.7623 10.6367 26.6178 11.459 26.1151 11.9295C25.7662 11.8837 25.4144 11.8629 25.0625 11.8672C20.7621 11.8672 20.4274 19.4646 20.4274 21.793C20.4274 26.6801 19.5782 27.6684 19.4745 27.7701C19.3886 27.8139 19.3133 27.876 19.254 27.9521C19.1948 28.0282 19.153 28.1164 19.1316 28.2105C19.1103 28.3046 19.1099 28.4022 19.1305 28.4964C19.151 28.5906 19.1921 28.6792 19.2507 28.7558C19.3124 28.8352 20.5567 30.4069 22.8982 30.9076L22.0687 31.7338L16.9178 33.7945C16.4217 33.9925 15.9816 34.3087 15.6357 34.7157C15.2899 35.1226 15.0487 35.6079 14.9333 36.1294L12.6088 46.5881C12.4211 47.4359 13.7008 47.7273 13.8905 46.8729L16.2149 36.4136C16.2841 36.1009 16.4287 35.8098 16.6361 35.5657C16.8434 35.3217 17.1073 35.132 17.4047 35.0131L21.7812 33.2622V35.5742C21.7812 35.712 21.8245 35.8463 21.9051 35.9581C21.9857 36.0699 22.0994 36.1535 22.2301 36.197L23.3838 36.5816L22.5484 37.8357C22.4581 37.9713 22.4214 38.1357 22.4456 38.2969C22.4697 38.4581 22.5529 38.6045 22.679 38.7078L29.6562 44.4165V46.7305C29.6562 47.5987 30.9687 47.5993 30.9687 46.7305V44.1186C30.9609 44.0523 30.9484 43.9289 30.9221 43.8627L30.4555 42.6906L35.3223 38.7072C35.5828 38.4932 35.6393 38.1165 35.4522 37.835L34.6168 36.5809L35.7705 36.1963C35.9012 36.153 36.0148 36.0695 36.0953 35.9578C36.1758 35.8461 36.219 35.7119 36.2187 35.5742V33.2622L40.5946 35.0125C40.8921 35.1313 41.1561 35.3211 41.3634 35.5653C41.5708 35.8095 41.7153 36.1007 41.7844 36.4136L44.1088 46.8729C44.2991 47.7273 45.5782 47.4359 45.3911 46.5881ZM21.7405 21.793C21.7405 20.9116 21.8337 13.1797 25.0631 13.1797C25.7883 13.1797 26.0705 13.2512 26.1053 13.2617C26.3448 13.351 26.6946 13.2492 26.854 13.0484C26.8882 13.0032 27.7433 11.9492 29.6562 11.9492C31.6092 11.9492 33.1409 12.5024 34.21 13.5931C36.3369 15.764 36.2588 19.6411 36.2253 21.2968C36.1879 23.1481 36.2732 27.0712 37.4026 28.5261C37.1158 28.95 36.264 29.706 33.8523 29.7467C33.4311 29.4367 32.9492 29.2191 32.4381 29.1082C32.3895 28.6681 32.3531 28.2267 32.3291 27.7845C33.3457 26.896 33.9271 25.7022 34.1699 24.8209C36.4163 23.1973 36.1984 20.8106 35.0526 20.0749C34.8377 19.9363 34.652 19.7571 34.5059 19.5473C33.8096 18.5511 32.4814 17.8384 31.0744 17.0844C29.5519 16.268 27.9769 15.4241 27.658 14.3819C27.4512 13.704 26.5003 13.8005 26.3848 14.46C26.0167 16.5357 25.2804 17.2786 24.569 17.9972C24.1641 18.4061 23.7454 18.828 23.4343 19.4462C23.2965 19.7192 23.0964 19.9581 22.8549 20.1379C22.5136 20.3912 22.108 20.9051 22.108 21.9163C22.108 23.4126 23.3018 24.4403 23.8281 24.8209C24.0729 25.7108 24.6622 26.9202 25.6971 27.8114C25.6686 28.2431 25.629 28.674 25.5783 29.1036C25.0637 29.2113 24.5782 29.4284 24.1549 29.7402C22.8674 29.7061 21.634 29.2156 20.6748 28.3561C21.1978 27.547 21.7405 25.7534 21.7405 21.793ZM27.9933 36.5022C28.7309 36.6669 29.2664 36.6682 29.9502 36.5455L28.9691 38.9552L27.9933 36.5022ZM29 27.6992C25.8355 27.6992 25.0782 24.4186 25.048 24.2808C25.0288 24.193 24.992 24.1099 24.9398 24.0367C24.8876 23.9635 24.821 23.9017 24.7442 23.8549C24.7304 23.847 23.4219 23.0431 23.4219 21.9157C23.4219 21.5574 23.5013 21.2929 23.6397 21.1899C24.047 20.885 24.3783 20.4902 24.6077 20.0362C24.8249 19.6037 25.1393 19.2874 25.5022 18.9206C26.0974 18.3188 26.8055 17.6048 27.3003 16.1748C28.1095 16.9833 29.2953 17.6192 30.4549 18.2407C31.6644 18.8891 32.9139 19.5591 33.431 20.2987C33.6748 20.6491 33.9852 20.9482 34.3445 21.1787C34.777 21.4557 34.731 22.944 33.259 23.8536C33.1817 23.8998 33.1147 23.9612 33.062 24.0342C33.0093 24.1073 32.972 24.1903 32.9526 24.2782C32.9217 24.4186 32.1644 27.6992 29 27.6992ZM29 29.0117C29.7122 29.0179 30.4179 28.8743 31.0711 28.5904C31.2017 30.1195 31.4629 31.5967 31.5882 32.2451C31.6123 32.3692 31.5995 32.4976 31.5515 32.6145L30.5868 34.9836C30.0753 35.2177 29.5164 35.3299 28.9542 35.3112C28.3919 35.2925 27.8417 35.1435 27.3469 34.876L26.4478 32.6158C26.4011 32.4988 26.389 32.3708 26.413 32.247C26.541 31.5941 26.8094 30.109 26.9525 28.5989C27.599 28.877 28.2962 29.0175 29 29.0117ZM24.6136 35.6077L23.0937 35.1011V32.5653C24.3465 31.3939 24.6057 30.8722 25.3814 30.5355C25.283 31.1557 25.1865 31.6787 25.1248 31.995C25.0523 32.3657 25.0881 32.7493 25.2279 33.1002L28.7657 41.9923L23.9698 38.068L24.9522 36.594C25.0082 36.5101 25.044 36.4143 25.0569 36.3143C25.0698 36.2142 25.0595 36.1126 25.0267 36.0172C24.994 35.9217 24.9397 35.8352 24.868 35.7641C24.7964 35.6931 24.7093 35.6396 24.6136 35.6077ZM34.9062 35.1011L33.3864 35.6077C33.2907 35.6396 33.2036 35.6931 33.132 35.7641C33.0603 35.8352 33.006 35.9217 32.9732 36.0172C32.9405 36.1126 32.9302 36.2142 32.9431 36.3143C32.956 36.4143 32.9918 36.5101 33.0477 36.594L34.0301 38.068L29.9463 41.4109L29.6694 40.7153L32.7662 33.1093C32.9108 32.7566 32.9489 32.3692 32.8758 31.995C32.7835 31.5115 32.7003 31.0262 32.6264 30.5395C33.3923 30.8748 33.5918 31.3329 34.9062 32.5647V35.1011Z" fill="#5F5F5F"/>
<path d="M39.5332 37.9916C39.4479 38.3105 38.9216 39.4517 38.8507 41.4802H34.2498C34.0757 41.4802 33.9088 41.5493 33.7857 41.6724C33.6626 41.7955 33.5935 41.9624 33.5935 42.1365V46.7302C33.5935 46.9043 33.6626 47.0712 33.7857 47.1942C33.9088 47.3173 34.0757 47.3865 34.2498 47.3865H39.4998C39.6738 47.3865 39.8407 47.3173 39.9638 47.1942C40.0869 47.0712 40.156 46.9043 40.156 46.7302V41.872C40.156 39.9977 40.7394 38.5586 40.7788 38.4063C41.0524 37.5814 39.8069 37.1673 39.5332 37.9916ZM38.8435 46.074H34.906V42.7927H38.8435V46.074Z" fill="#5F5F5F"/>
</svg>
