<svg width="50" height="69" viewBox="0 0 50 69" fill="none" xmlns="http://www.w3.org/2000/svg">
<g filter="url(#filter0_f_743_35258)">
<path d="M38.4733 7.96038C36.4936 4.05964 30.9848 3.77677 28.4984 7.43153C26.4648 10.455 25.8806 15.1636 32.6924 21.6545C32.9594 20.7606 33.5447 18.7078 33.9338 15.9613C33.9338 15.9613 33.9118 16.0412 33.9336 16.1968C33.8635 17.0779 33.5358 20.4614 31.8173 25.6231C31.6645 25.2406 31.3552 24.6458 30.9584 23.8997C30.7669 22.0937 29.7233 15.3323 24.9116 14.3108C21.5652 13.5864 18.66 16.8105 19.6705 20.094C20.4919 22.8141 23.1801 25.4652 30.7611 24.3835C30.8812 24.6504 30.9903 24.9573 31.1249 25.2495C30.917 25.3022 30.5268 25.393 30.1402 25.549C29.1266 25.5626 24.9336 25.7305 23.9538 28.5155C23.2957 30.4422 24.982 32.3603 27.0022 31.9673C28.6833 31.6356 30.4383 30.2525 30.3478 25.7317C30.6213 25.6747 30.9605 25.6134 31.223 25.5963C31.3321 25.9032 31.4557 26.2353 31.5393 26.557C29.9014 31.2686 27.1283 37.3754 22.5315 44.3333C22.5539 43.7824 22.5619 42.9708 22.5483 42.0035C23.4219 39.6834 26.3033 30.7568 21.0936 26.569C17.4285 23.6412 11.9502 25.829 11.1364 30.4347C10.4655 34.2854 12.0907 39.1643 21.9791 42.433C21.9605 42.8136 21.92 43.2742 21.8794 43.7347C21.5987 43.6614 21.0665 43.5651 20.5088 43.4837C19.2479 42.833 14.0618 40.5144 11.1606 43.3327C9.16077 45.2943 10.0436 48.6515 12.7336 49.4186C14.968 50.0451 17.9619 49.3926 20.6579 43.801C21.0443 43.8806 21.4744 44.0358 21.8243 44.17C21.7618 44.7105 21.6592 45.2404 21.5566 45.7704C17.4821 51.6871 12.1091 58.1853 4.93467 64.9838L9.35236 62.4333C9.52753 62.2649 9.67716 62.1113 9.82679 61.9576C12.1662 59.4637 15.9256 55.2421 19.7734 49.9943C20.2803 49.8698 20.8018 49.7705 21.3233 49.6712C21.4724 49.9885 21.5997 50.3858 21.7233 50.7179C16.6639 53.3364 16.1581 56.1166 16.8088 58.1283C17.6013 60.5625 20.7216 61.2492 22.4625 59.3699C24.9991 56.6276 22.6628 51.9913 22.0622 50.8921C21.9935 50.3602 21.8626 49.8977 21.7827 49.6413C22.1874 49.5757 22.6068 49.5354 22.9605 49.4993C26.3209 58.3864 30.8589 59.7005 34.4144 58.959C38.6738 58.0803 40.5016 52.99 37.6498 49.7609C33.6291 45.1555 25.4775 48.0797 23.3657 48.9627C21.8526 48.9957 20.8571 49.0997 20.4378 49.14C22.997 45.6114 25.5456 41.6517 27.7262 37.4673C28.1677 37.1115 28.6639 36.7914 29.1746 36.4966C29.3968 36.7045 29.6627 36.9882 29.8484 37.2508C26.4028 41.1903 26.8963 43.6963 28.1637 45.1838C29.6459 46.9844 32.5595 46.5464 33.4402 44.3567C34.7011 41.1741 31.1019 38.0066 30.2056 37.2799C29.9581 36.8512 29.6887 36.5024 29.5466 36.3154C29.8786 36.1237 30.2251 35.9573 30.506 35.7951C36.4319 42.2259 40.7565 41.8139 43.5546 39.9966C46.8855 37.8045 46.7334 32.8822 43.2094 31.0836C38.195 28.5314 32.2106 33.735 30.6852 35.2209C29.591 35.6845 28.8213 36.0617 28.3982 36.2723C30.0603 32.959 31.4672 29.5576 32.4622 26.0914C32.6008 25.9777 32.8781 25.7504 33.2612 25.5292C39.1936 28.9636 42.3887 27.6569 44.0312 25.6662C46.0206 23.2736 44.7406 19.6413 41.6821 19.1206C37.0015 18.326 33.5721 24.4755 33.1447 25.3275C32.9769 25.3907 32.8091 25.4539 32.6304 25.5571C32.9377 24.4382 33.2049 23.3088 33.4065 22.1837C34.1657 21.3755 41.5374 14.0932 38.4733 7.96038ZM22.9942 17.7715C26.9377 19.2944 29.8761 23.3813 29.8761 23.3813C26.0551 19.5349 22.9942 17.7715 22.9942 17.7715ZM25.8448 29.8447C27.0537 27.6336 29.6729 26.155 29.6729 26.155C27.1225 28.1655 25.8448 29.8447 25.8448 29.8447ZM16.6098 29.5948C20.4413 33.8723 21.4995 40.6588 21.4995 40.6588C19.242 33.6232 16.6098 29.5948 16.6098 29.5948ZM12.6601 46.1657C15.4621 44.1781 19.6005 43.9745 19.6005 43.9745C15.2354 44.847 12.6601 46.1657 12.6601 46.1657ZM19.8095 58.0771C19.8095 58.0771 20.9165 55.6895 21.6057 51.6937C21.6057 51.6937 21.5475 55.4261 19.8095 58.0771ZM34.9406 53.9142C34.9406 53.9142 31.14 51.6363 24.5461 49.8279C24.5862 49.8384 30.8967 50.5663 34.9406 53.9142ZM30.7133 44.1153C30.7133 44.1153 30.8577 41.7118 30.0663 38.1001C30.0919 38.0854 31.3357 41.3013 30.7133 44.1153ZM42.2792 35.4875C42.2792 35.4875 38.2656 34.8458 31.9793 35.5162C32.0048 35.5014 37.6538 34.0221 42.2792 35.4875ZM42.0435 22.5771C42.0435 22.5771 38.8929 23.0175 34.3628 24.9604C34.3628 24.9604 38.248 22.5492 42.0435 22.5771Z" fill="#009444"/>
</g>
<defs>
<filter id="filter0_f_743_35258" x="0.934692" y="0.854492" width="49.0212" height="68.1294" filterUnits="userSpaceOnUse" color-interpolation-filters="sRGB">
<feFlood flood-opacity="0" result="BackgroundImageFix"/>
<feBlend mode="normal" in="SourceGraphic" in2="BackgroundImageFix" result="shape"/>
<feGaussianBlur stdDeviation="2" result="effect1_foregroundBlur_743_35258"/>
</filter>
</defs>
</svg>
