<svg width="198" height="168" viewBox="0 0 198 168" fill="none" xmlns="http://www.w3.org/2000/svg">
<g filter="url(#filter0_f_743_35257)">
<path d="M193.971 23.9292C194.75 9.51227 179.471 -0.387364 166.332 5.95609C155.529 11.2423 146.089 23.737 154.848 53.532C157.087 51.4175 162.147 46.5157 167.792 39.3073C167.792 39.3073 167.597 39.4995 167.403 39.9801C165.748 42.3829 159.228 51.5136 145.797 63.4316C145.992 62.086 146.089 59.8754 146.187 57.0882C148.62 51.6097 156.795 30.561 144.727 19.7002C136.357 12.1073 122.732 16.5285 120.202 27.5815C118.061 36.7122 121.37 48.7263 144.824 58.1454C144.727 59.1065 144.532 60.1638 144.435 61.221C143.754 61.0288 142.488 60.6443 141.126 60.4521C138.206 58.8182 125.944 52.3786 118.547 58.7221C113.487 63.1433 115.141 71.409 121.564 73.6196C126.917 75.4457 134.216 74.3885 141.418 61.3171C142.294 61.6055 143.364 61.9899 144.143 62.3744C143.948 63.4316 143.754 64.585 143.462 65.6422C131.004 76.4068 113 89.286 88.3777 101.588C89.3509 100.051 90.7134 97.7439 92.2705 94.9566C98.5964 89.7665 121.564 69.0062 113.584 48.438C107.939 34.0211 88.6696 31.2338 78.7429 43.0557C70.4705 52.9553 67.0643 69.5828 89.9348 95.245C89.2536 96.3022 88.3777 97.5517 87.5018 98.8012C86.8205 98.1284 85.458 96.975 83.9982 95.8217C81.4679 91.881 70.4705 76.6952 57.5268 79.963C48.5732 82.2697 45.5563 93.3227 51.9795 99.9545C57.3321 105.433 66.967 108.509 83.9009 96.975C84.8741 97.84 85.8473 98.9934 86.6259 99.9545C85.5554 101.396 84.3875 102.742 83.2197 104.087C61.8089 114.275 35.7268 123.983 4 131.576H20.8366C21.6152 131.383 22.2964 131.191 22.9777 130.999C33.7804 127.731 51.4929 121.868 71.1518 113.218C72.8063 113.699 74.4607 114.275 76.1152 114.852C76.0179 116.005 75.7259 117.351 75.5312 118.504C56.7482 117.639 50.7143 124.752 49.2545 131.576C47.5027 139.841 55.2884 146.954 63.3661 144.455C75.142 140.803 76.1152 123.694 76.2125 119.562C76.8938 117.928 77.283 116.39 77.4777 115.525C78.7429 116.005 80.008 116.582 81.0786 117.063C76.0179 148.011 86.8205 159.256 98.2072 163.005C111.832 167.522 125.457 155.988 122.635 142.052C118.742 122.253 90.6161 117.159 83.1223 116.198C78.7429 113.795 75.7259 112.449 74.4607 111.873C87.5991 106.01 101.419 98.8973 114.557 90.5354C116.406 90.2471 118.353 90.151 120.299 90.151C120.591 91.1121 120.883 92.3616 120.98 93.4188C104.63 98.9934 101.905 106.971 103.073 113.314C104.338 120.907 113.389 124.463 119.521 119.658C128.377 112.641 123.316 97.6478 121.954 94.0916C121.954 92.4577 121.759 91.016 121.662 90.2471C122.927 90.2471 124.192 90.3432 125.263 90.3432C131.588 118.504 144.629 124.463 155.627 123.887C168.765 123.118 176.454 108.797 169.349 97.84C159.228 82.2697 133.535 87.2676 126.722 88.9976C122.829 88.5171 120.007 88.3249 118.45 88.2287C128.669 81.5008 138.304 74.1001 146.868 65.8344C147.452 65.7383 148.62 65.5461 150.079 65.5461C161.369 85.1531 172.658 86.6909 180.638 83.7114C190.273 80.1553 192.609 67.6606 184.726 61.1249C172.658 51.1292 152.707 63.0472 150.079 64.7772C149.496 64.6811 148.912 64.585 148.23 64.585C150.955 61.8938 153.583 59.1065 156.016 56.2231C159.52 55.1659 192.609 46.5157 193.971 23.9292ZM133.535 26.4281C142.294 37.2889 143.948 53.8203 143.948 53.8203C139.374 36.52 133.535 26.4281 133.535 26.4281ZM121.759 65.6422C128.863 61.3171 138.79 61.4132 138.79 61.4132C128.182 62.951 121.759 65.6422 121.759 65.6422ZM95.7741 49.6875C99.667 68.2373 91.492 89.3821 91.492 89.3821C96.65 65.5461 95.7741 49.6875 95.7741 49.6875ZM57.1375 90.5354C68.4268 89.4782 80.592 95.7255 80.592 95.7255C66.675 91.016 57.1375 90.5354 57.1375 90.5354ZM57.9161 136.381C57.9161 136.381 65.0205 131.383 73.5848 121.099C73.5848 121.099 67.2589 131.672 57.9161 136.381ZM108.037 149.453C108.037 149.453 100.932 136.67 85.0688 120.619C85.1661 120.715 102.003 133.21 108.037 149.453ZM112.124 114.468C112.124 114.468 116.504 107.836 120.202 96.2061C120.299 96.2061 118.547 107.451 112.124 114.468ZM159.422 108.893C159.422 108.893 149.009 100.435 129.934 91.9771C130.031 91.9771 148.62 97.0711 159.422 108.893ZM180.054 71.6012C180.054 71.6012 170.322 67.6606 154.167 65.7383C154.167 65.7383 169.252 65.2578 180.054 71.6012Z" fill="#009444"/>
</g>
<defs>
<filter id="filter0_f_743_35257" x="0" y="0" width="198" height="168" filterUnits="userSpaceOnUse" color-interpolation-filters="sRGB">
<feFlood flood-opacity="0" result="BackgroundImageFix"/>
<feBlend mode="normal" in="SourceGraphic" in2="BackgroundImageFix" result="shape"/>
<feGaussianBlur stdDeviation="2" result="effect1_foregroundBlur_743_35257"/>
</filter>
</defs>
</svg>
