<svg width="17" height="20" viewBox="0 0 17 20" fill="none" xmlns="http://www.w3.org/2000/svg">
<path d="M15.4825 19.9997H0.996464C0.967402 19.9997 0.938216 19.9984 0.909402 19.9962C0.359006 19.9453 -0.0457082 19.4581 0.00415454 18.9092L1.21202 5.57595C1.25889 5.05751 1.68517 4.6665 2.20388 4.6665H14.2751C14.7929 4.66707 15.2191 5.05808 15.2662 5.57593L16.4739 18.9092C16.4765 18.9376 16.4777 18.9685 16.4777 18.9991C16.478 19.5502 16.0319 19.9994 15.4825 19.9997ZM2.20388 5.33311C2.03112 5.33311 1.8891 5.46334 1.87354 5.63616L0.665776 18.9698C0.648958 19.1527 0.784126 19.3151 0.966437 19.3317L0.996488 19.3331H15.4821C15.6651 19.3327 15.8136 19.1834 15.8136 18.9994L14.6047 5.63655C14.5891 5.46374 14.4471 5.3335 14.2745 5.33311H2.20388ZM5.58273 7.00071C5.58223 6.81685 5.43267 6.6668 5.24986 6.66643L5.25142 5.99983C5.79865 6.00107 6.24529 6.4494 6.24685 6.99878L5.58273 7.00071Z" fill="white"/>
<path d="M11.2283 8.00017C10.679 8.00017 10.232 7.55167 10.232 7.00016C10.232 6.44875 10.6788 6.00024 11.2283 6.00024C11.7776 6.00024 12.2245 6.44875 12.2245 7.00016C12.2245 7.55167 11.7776 8.00017 11.2283 8.00017ZM11.2283 6.66685C11.0451 6.66685 10.8961 6.8163 10.8961 7.00016C10.8961 7.18422 11.0451 7.33357 11.2283 7.33357C11.4116 7.33357 11.5604 7.18422 11.5604 7.00016C11.5604 6.8163 11.4116 6.66685 11.2283 6.66685ZM5.25059 8.00017C4.70133 8.00017 4.25439 7.55167 4.25439 7.00016C4.25439 6.44875 4.70123 6.00024 5.25059 6.00024V6.66685C5.06761 6.66685 4.91854 6.8162 4.91854 7.00016C4.91854 7.18402 5.06761 7.33357 5.25059 7.33357C5.43369 7.33357 5.58276 7.18402 5.58276 7.00016H6.2469C6.2469 7.55167 5.80004 8.00017 5.25059 8.00017Z" fill="white"/>
<path d="M5.58284 7.00113C5.58234 6.81727 5.43281 6.66722 5.25 6.66685L5.25156 6.00024C5.79879 6.00149 6.24543 6.44982 6.24698 6.99919L5.58284 7.00113Z" fill="white"/>
<path d="M11.5603 6.33332H10.896V3.33335C10.896 1.86301 9.7043 0.666725 8.2394 0.666725C6.77453 0.666725 5.58268 1.86301 5.58268 3.33338V6.33335H4.91846V3.33338C4.91846 1.49527 6.40816 0 8.23943 0C10.0705 0 11.5603 1.49527 11.5603 3.33338V6.33332Z" fill="white"/>
</svg>
