<svg width="26" height="26" viewBox="0 0 26 26" fill="none" xmlns="http://www.w3.org/2000/svg">
<path d="M21.3029 26.0001H4.69238C3.06738 25.995 1.75215 24.6798 1.74707 23.0548V21.7548C1.74707 18.5759 3.08262 15.5442 5.43379 13.4064C6.41387 12.5177 7.87129 12.3958 8.9834 13.1118C10.1463 13.8583 11.5326 14.2544 13.0002 14.2544C14.4678 14.2544 15.8541 13.8583 17.017 13.1118C18.1291 12.3958 19.5865 12.5177 20.5666 13.4064C22.9178 15.5442 24.2584 18.5759 24.2533 21.7548V23.0548C24.2482 24.6849 22.9279 26.0001 21.3029 26.0001ZM7.39902 13.6603C6.92168 13.6603 6.46465 13.838 6.11426 14.1579C3.97637 16.1028 2.75762 18.8653 2.75762 21.7548V23.0548C2.7627 24.1212 3.6209 24.9794 4.6873 24.9845H21.2978C22.3643 24.9845 23.2275 24.1212 23.2275 23.0548V21.7548C23.2275 18.8653 22.0088 16.1079 19.8709 14.1579C19.2311 13.579 18.2814 13.4978 17.5553 13.9649C16.2299 14.8181 14.6506 15.27 12.99 15.27C11.3295 15.27 9.75019 14.8181 8.4248 13.9649C8.1252 13.7669 7.76465 13.6603 7.39902 13.6603Z" fill="black"/>
<path d="M13 13.1016C9.38438 13.0965 6.4543 10.1664 6.44922 6.55078C6.44922 2.94023 9.38438 0 13 0C16.6156 0.00507813 19.5457 2.93516 19.5508 6.55078C19.5457 10.1613 16.6105 13.1016 13 13.1016ZM13 1.0207C9.94297 1.0207 7.46484 3.49883 7.46484 6.55586C7.46484 9.61289 9.94297 12.091 13 12.091C16.057 12.091 18.5352 9.61289 18.5352 6.55586C18.5301 3.49883 16.057 1.0207 13 1.0207Z" fill="black"/>
</svg>
