<svg width="64" height="38" viewBox="0 0 64 38" fill="none" xmlns="http://www.w3.org/2000/svg">
<path d="M24.8125 0.628906C27.9999 0.628906 30.837 0.628906 34.054 0.628906C34.6773 8.22346 35.3005 15.8478 35.9237 23.4661C36.0246 23.4661 36.1255 23.4721 36.2264 23.4721C37.093 15.9251 37.9596 8.38416 38.844 0.670569C42.15 0.670569 45.2721 0.670569 48.8156 0.670569C49.4804 8.53891 50.1511 16.4846 50.8159 24.4303C50.893 24.4422 50.9761 24.4541 51.0533 24.4601C51.908 16.5739 52.7568 8.6877 53.6293 0.652714C56.9116 0.652714 59.9209 0.652714 63.0667 0.652714C61.6303 12.9552 60.2117 25.1386 58.7457 37.7387C55.131 37.7387 51.5044 37.8279 47.8956 37.6434C47.3673 37.6137 46.5957 36.3519 46.4592 35.5662C45.5333 30.3107 44.7439 25.0315 43.5983 19.7224C42.7377 25.6207 41.883 31.5249 40.9986 37.5839C37.093 37.5839 33.2765 37.5839 29.1276 37.5839C27.7031 25.3172 26.2667 13.0683 24.8125 0.628906Z" fill="black"/>
<path d="M0.921875 37.2389C0.921875 25.1626 0.921875 12.9971 0.921875 0.236328C6.56059 0.539872 12.0687 0.593439 17.5056 1.22433C20.5683 1.58144 22.8119 3.76577 22.8654 7.075C23.0078 15.479 22.9425 23.889 22.8713 32.2989C22.8476 34.9058 21.245 36.989 18.853 37.1259C12.8997 37.4651 6.91078 37.2389 0.921875 37.2389ZM10.5908 31.174C10.8519 31.3466 11.119 31.5192 11.3802 31.6918C12.0865 30.8109 13.3686 29.9479 13.3983 29.0433C13.6119 22.4427 13.6238 15.8361 13.5763 9.22956C13.5645 7.4202 12.4901 6.61075 10.5908 7.25355C10.5908 15.2826 10.5908 23.2283 10.5908 31.174Z" fill="black"/>
</svg>
